# xmcd
#
# Track frame offsets:
#	150
#	19455
#	34825
#	52578
#	69711
#	89915
#	105039
#	120133
#	138057
#	155406
#	173223
#	194803
#	213280
#	232929
#	252987
#	273609
#	291506
#	308022
#	323688
#
# Disc length: 4469 seconds
#
# Revision: 0
# Processed by: cddbd v1.4PL0 Copyright (c) Steve Scherf et al.
# Submitted via: audiograbber 1.81.02
#
DISCID=0a117313
DTITLE=donna summer - greatest hits
DYEAR=1900
DGENRE=
TTITLE0=melody of love (wanna be loved)
TTITLE1=love to love you baby
TTITLE2=could it be magic
TTITLE3=i feel love
TTITLE4=love's unrind
TTITLE5=i love you
TTITLE6=last dance
TTITLE7=mac arthur park
TTITLE8=hot stuff
TTITLE9=bad girls
TTITLE10=no more tears (enough is enough) - duet with barabara streisand
TTITLE11=on the radio
TTITLE12=love is in control
TTITLE13=state of independence
TTITLE14=she works hard for the money
TTITLE15=unconditional love
TTITLE16=this time i know it's for real
TTITLE17=i don't wanna get hurt
TTITLE18=any way at all
EXTD=
EXTT0=
EXTT1=
EXTT2=
EXTT3=
EXTT4=
EXTT5=
EXTT6=
EXTT7=
EXTT8=
EXTT9=
EXTT10=
EXTT11=
EXTT12=
EXTT13=
EXTT14=
EXTT15=
EXTT16=
EXTT17=
EXTT18=
PLAYORDER=
